# File produced by Open Asset Import Library (http://www.assimp.sf.net)
# (assimp v5.0.0)

mtllib save.mtl

# 8 vertex positions
v  1 1 -1
v  -1 1 -1
v  -1 1 1
v  1 1 1
v  1 -1 1
v  -1 -1 1
v  -1 -1 -1
v  1 -1 -1

# 14 UV coordinates
vt 0.625 0.5 0
vt 0.875 0.5 0
vt 0.875 0.75 0
vt 0.625 0.75 0
vt 0.375 0.75 0
vt 0.625 1 0
vt 0.375 1 0
vt 0.375 0 0
vt 0.625 0 0
vt 0.625 0.25 0
vt 0.375 0.25 0
vt 0.125 0.5 0
vt 0.375 0.5 0
vt 0.125 0.75 0

# 6 vertex normals
vn 0 1 0
vn 0 0 1
vn -1 0 0
vn 0 -1 0
vn 1 0 0
vn 0 0 -1

# Mesh 'Cube' with 6 faces
g Cube
usemtl Material
f  1/1/1 2/2/1 3/3/1 4/4/1
f  5/5/2 4/4/2 3/6/2 6/7/2
f  6/8/3 3/9/3 2/10/3 7/11/3
f  7/12/4 8/13/4 5/5/4 6/14/4
f  8/13/5 1/1/5 4/4/5 5/5/5
f  7/11/6 2/10/6 1/1/6 8/13/6

